HIERARCHY
ROOT hip
{
	OFFSET 0.000000 0.000000 0.000000 
	CHANNELS 6 Xposition Yposition Zposition Xrotation Zrotation Yrotation
	JOINT abdomen
	{
		OFFSET 0.000000 3.402643 0.000000 
		CHANNELS 3 Xrotation Zrotation Yrotation
		JOINT chest
		{
			OFFSET 0.000000 8.438565 -0.680529 
			CHANNELS 3 Xrotation Zrotation Yrotation
			JOINT neck
			{
				OFFSET 0.000000 10.207942 -0.272212 
				CHANNELS 3 Xrotation Zrotation Yrotation
				JOINT head
				{
					OFFSET 0.000000 3.130431 0.000000 
					CHANNELS 3 Xrotation Zrotation Yrotation
					End Site
					{
						OFFSET 0.000000 3.130435 0.000000 
					}
				}
			}
			JOINT lCollar
			{
				OFFSET 3.470700 6.669187 -0.816635 
				CHANNELS 3 Yrotation Zrotation Xrotation
				JOINT lShldr
				{
					OFFSET 3.198488 0.000000 0.000000 
					CHANNELS 3 Zrotation Yrotation Xrotation
					JOINT lForeArm
					{
						OFFSET 10.139888 0.000000 0.000000 
						CHANNELS 3 Yrotation Zrotation Xrotation
						JOINT lHand
						{
							OFFSET 8.370511 0.000000 0.000000 
							CHANNELS 3 Zrotation Yrotation Xrotation
							End Site
							{
								OFFSET 4.083176 0.000000 0.000000 
							}
						}
					}
				}
			}
			JOINT rCollar
			{
				OFFSET -3.470700 6.669187 -0.816635 
				CHANNELS 3 Yrotation Zrotation Xrotation
				JOINT rShldr
				{
					OFFSET -3.198488 0.000000 0.000000 
					CHANNELS 3 Zrotation Yrotation Xrotation
					JOINT rForeArm
					{
						OFFSET -10.139888 0.000000 0.000000 
						CHANNELS 3 Yrotation Zrotation Xrotation
						JOINT rHand
						{
							OFFSET -8.370511 0.000000 0.000000 
							CHANNELS 3 Zrotation Yrotation Xrotation
							End Site
							{
								OFFSET -4.083176 0.000000 0.000000 
							}
						}
					}
				}
			}
		}
	}
	JOINT lThigh
	{
		OFFSET 5.308129 -1.633274 1.361059 
		CHANNELS 3 Xrotation Zrotation Yrotation
		JOINT lShin
		{
			OFFSET -2.041588 -20.007561 0.000000 
			CHANNELS 3 Xrotation Zrotation Yrotation
			JOINT lFoot
			{
				OFFSET 0.000000 -19.190928 -1.224953 
				CHANNELS 3 Xrotation Yrotation Zrotation
				End Site
				{
					OFFSET 0.000000 -2.449906 4.627600 
				}
			}
		}
	}
	JOINT rThigh
	{
		OFFSET -5.308129 -1.633274 1.361059 
		CHANNELS 3 Xrotation Zrotation Yrotation
		JOINT rShin
		{
			OFFSET 2.041588 -20.007561 0.000000 
			CHANNELS 3 Xrotation Zrotation Yrotation
			JOINT rFoot
			{
				OFFSET 0.000000 -19.190928 -1.224953 
				CHANNELS 3 Xrotation Yrotation Zrotation
				End Site
				{
					OFFSET 0.000000 -2.449906 4.627600 
				}
			}
		}
	}
}
MOTION
Frames: 18
Frame Time: 0.011111
126.918716 49.132668 9.120795 -0.959169 -2.598118 -88.887604 35.517853 -0.942318 -1.748804 -25.843033 -1.867673 -0.415434 -6.071516 3.326509 1.455940 -2.183679 -3.122679 3.685316 -4.639579 -2.584670 0.232935 -69.286438 -22.563353 34.723972 -67.638260 9.361466 15.928555 8.524705 12.647240 -46.165417 2.212703 6.201041 0.507338 67.962608 20.943838 14.995366 40.695251 -4.998369 4.640898 -8.534408 -12.637552 15.794780 2.080457 -0.359282 0.538135 34.336044 -5.092672 -5.409316 -30.266676 -11.714381 -8.610977 -19.191532 -5.818162 -1.788073 60.650112 2.666135 8.175138 -24.182570 4.093497 4.156054 
126.578659 49.303776 9.155877 -0.745606 -2.023853 -88.862579 34.655987 -1.071793 -0.952259 -24.250872 -1.432840 -0.255962 -6.352767 3.482657 1.104606 -2.960010 -4.244262 3.098706 -4.639579 -2.584670 0.232935 -69.660316 -24.001740 35.154739 -68.633644 9.290896 16.410114 8.524705 12.647240 -45.579483 2.212703 6.201041 0.507338 67.335197 21.330444 14.029069 39.935875 -4.726504 4.375443 -8.534408 -12.637552 14.505716 2.436871 -0.106975 0.542561 33.063641 -5.170982 -5.230530 -29.835640 -11.799495 -8.605651 -20.788937 -5.614670 -2.001305 59.584488 2.783383 8.087351 -23.025555 3.660367 3.986998 
126.205360 49.431179 9.190344 -0.378985 -1.393097 -88.975349 34.221878 -0.579972 -0.648245 -24.280172 -1.441623 -0.235181 -6.509212 3.430251 1.128727 -2.926905 -4.722813 3.155799 -4.639579 -2.584670 0.232935 -69.990555 -23.904909 34.798286 -70.034607 9.150629 17.097290 8.524705 12.647240 -45.032600 2.212703 6.201041 0.507338 66.927879 20.682356 14.058531 39.320225 -4.507761 4.166141 -8.534408 -12.637552 15.755718 2.593704 0.322239 0.813534 32.018318 -5.230772 -5.095518 -29.868319 -11.740332 -8.590493 -22.170565 -5.164565 -2.061533 57.833908 2.978697 7.925786 -21.821648 3.411953 3.919318 
125.809006 49.548733 9.221120 0.010603 -0.771567 -89.111656 33.895367 0.059678 -0.520654 -24.543821 -1.552882 -0.270756 -6.566148 3.150985 1.166442 -2.748756 -4.711149 3.135916 -4.639579 -2.584670 0.232935 -70.221313 -23.484718 34.408577 -71.521935 8.952241 17.838001 8.524705 12.647240 -44.417366 2.212703 6.201041 0.507338 66.588455 19.871702 15.213386 38.796150 -4.313040 3.982372 -8.534408 -12.637552 17.855328 2.824841 0.780028 1.122933 30.891853 -5.293834 -4.943914 -29.503859 -11.991151 -8.691400 -23.529537 -4.696606 -2.018995 55.885666 3.201548 7.746798 -20.296120 3.416148 3.961573 
125.413559 49.657978 9.238045 0.207781 -0.148214 -89.046349 33.465443 0.304327 -0.399525 -24.221611 -1.385572 -0.288640 -6.595124 3.111564 1.159211 -3.339103 -4.971042 3.155497 -4.639579 -2.584670 0.232935 -70.369141 -23.635956 34.493946 -72.892502 8.717182 18.530931 8.524705 12.647240 -43.460339 2.212703 6.201041 0.507338 66.208633 19.557774 15.391438 38.242477 -4.101910 3.798039 -8.534408 -12.637552 18.910013 3.062589 1.044469 1.318172 29.831589 -5.362154 -4.807755 -28.751760 -12.432222 -8.862288 -24.839188 -4.501517 -2.060497 53.543510 3.445301 7.528660 -20.368055 3.684361 4.069654 
125.016266 49.753078 9.242968 0.408635 0.386441 -88.826241 33.463264 0.649082 -0.449400 -24.602690 -1.263769 -0.336002 -6.557118 3.103734 1.270802 -3.893415 -5.103724 3.395293 -4.639579 -2.584670 0.232935 -70.449356 -23.437311 34.728695 -74.087837 8.472428 19.143820 8.524705 12.647240 -42.708389 2.212703 6.201041 0.507338 65.943321 18.956608 14.588206 37.639942 -3.866219 3.585202 -8.534408 -12.637552 18.333845 3.373643 1.306856 1.470786 28.733595 -5.405294 -4.662041 -27.857435 -12.809106 -8.968108 -25.944464 -4.365242 -2.206379 50.913460 3.714905 7.279934 -19.787939 2.798274 3.738861 
124.625130 49.827545 9.236506 0.551744 0.841436 -88.302246 33.554878 1.125431 -0.743738 -24.632042 -1.174997 -0.477892 -6.431084 3.057278 1.412091 -5.113376 -5.139653 3.716916 -4.639579 -2.584670 0.232935 -70.353065 -23.693348 35.109428 -74.963913 8.262095 19.603109 8.524705 12.647240 -42.015030 2.212703 6.201041 0.507338 65.709641 18.797325 12.788189 37.008575 -3.620207 3.379032 -8.534408 -12.637552 15.911969 3.784350 1.551314 1.361589 27.588566 -5.473031 -4.536488 -26.716059 -13.216567 -9.035534 -26.862566 -4.433242 -2.477579 48.113907 3.964775 6.988163 -20.526093 3.165500 3.877434 
124.220146 49.892784 9.217118 0.556622 1.287611 -87.690628 33.692947 1.410982 -1.116670 -24.661411 -1.066265 -0.611352 -6.440959 3.140451 1.362786 -6.027036 -5.336144 3.689333 -4.639579 -2.584670 0.232935 -70.081841 -24.041042 35.783520 -75.630722 8.085717 19.967762 8.524705 12.647240 -41.380260 2.212703 6.201041 0.507338 65.566132 18.593990 10.645129 36.618111 -3.461460 3.252244 -8.534408 -12.637552 12.816266 4.249828 1.667880 1.228395 26.384733 -5.525588 -4.361677 -25.795673 -13.643388 -9.122948 -27.751535 -4.706831 -2.660946 45.259613 4.228259 6.677967 -20.788610 3.113590 3.824280 
123.766533 49.943565 9.194653 0.588285 1.685937 -87.412109 33.856750 1.542137 -1.190972 -24.671221 -1.019484 -0.643484 -6.432683 3.327903 1.371832 -6.933793 -5.513901 3.780513 -4.639579 -2.584670 0.232935 -69.698639 -24.437231 36.665470 -76.104668 7.954525 20.231115 8.524705 12.647240 -41.165421 2.212703 6.201041 0.507338 65.545952 18.279909 8.591325 36.468361 -3.401105 3.196673 -8.534408 -12.637552 9.808452 4.899778 1.786758 1.282678 25.126520 -5.579447 -4.201520 -25.155128 -14.014050 -9.224266 -28.544003 -4.814795 -2.558643 42.438854 4.469983 6.381062 -20.244089 2.864390 3.763064 
123.276619 49.969719 9.166649 0.582783 2.007494 -87.247856 34.080788 1.609491 -1.207373 -24.749338 -1.021618 -0.661584 -6.483660 3.530677 1.414273 -7.607789 -5.661317 3.971450 -4.639579 -2.584670 0.232935 -69.290779 -24.880285 37.524250 -76.324524 7.888709 20.345327 8.524705 12.647240 -41.331436 2.212703 6.201041 0.507338 65.587357 17.910446 6.158706 36.398434 -3.374724 3.177208 -8.534408 -12.637552 5.765483 5.748872 1.864689 1.352488 23.761106 -5.647596 -4.015202 -24.346306 -14.426362 -9.298350 -29.204441 -4.931327 -2.352224 39.752983 4.683712 6.028974 -18.680792 2.736937 3.736284 
122.770378 49.974644 9.122950 0.403482 2.333516 -87.091316 34.272224 1.469710 -1.374781 -24.759182 -0.954774 -0.685309 -6.505661 3.717881 1.499061 -8.321193 -5.758198 4.222142 -4.639579 -2.584670 0.232935 -68.888733 -25.441763 38.309727 -76.284302 7.900171 20.321102 8.524705 12.647240 -41.673233 2.212703 6.201041 0.507338 65.674210 17.758612 3.338274 36.258617 -3.321772 3.137920 -8.534408 -12.637552 1.292827 6.653438 1.785713 1.509846 22.323639 -5.695772 -3.816094 -23.475048 -14.738580 -9.286344 -29.945145 -5.262739 -2.026349 37.328300 4.853114 5.746284 -16.652931 2.894365 3.799722 
122.243225 49.983261 9.066018 0.060657 2.664460 -87.057991 34.416000 1.053120 -1.541818 -24.632446 -0.806445 -0.686799 -6.459794 3.927259 1.626532 -9.213223 -5.818242 4.581658 -4.639579 -2.584670 0.232935 -68.514626 -26.094273 39.007000 -76.032799 7.972110 20.182829 8.524705 12.647240 -42.249401 2.212703 6.201041 0.507338 65.774567 17.871595 1.273203 36.128864 -3.267362 3.090583 -8.534408 -12.637552 -1.295063 7.670120 1.503479 1.652615 20.895790 -5.755484 -3.629804 -23.010744 -14.726752 -9.185448 -30.681948 -5.683322 -1.532890 35.254574 4.999292 5.502076 -15.142355 3.303652 3.925980 
121.677292 49.950333 8.998008 -0.281665 2.975585 -87.215782 34.475166 0.595764 -1.658009 -24.525345 -0.627335 -0.659936 -6.365598 4.114601 1.839427 -10.010066 -5.878521 5.074786 -4.639579 -2.584670 0.232935 -68.263611 -26.679722 39.425701 -75.440178 8.139330 19.866711 8.524705 12.647240 -43.284557 2.212703 6.201041 0.507338 65.828728 17.942974 0.468583 36.098934 -3.253422 3.076563 -8.534408 -12.637552 -1.812642 8.736376 1.240227 1.849223 19.500505 -5.813756 -3.425388 -22.789185 -14.633307 -9.096954 -31.402027 -5.975439 -0.925040 33.665401 5.091464 5.320213 -14.545485 3.894040 4.071265 
121.067039 49.887558 8.925073 -0.552665 3.283508 -87.502899 34.448185 0.231157 -1.726578 -24.574482 -0.470145 -0.639729 -6.269005 4.178516 1.919040 -10.094721 -5.948452 5.247453 -4.639579 -2.584670 0.232935 -68.225204 -27.009977 39.388519 -74.598907 8.354808 19.420485 8.524705 12.647240 -44.466194 2.212703 6.201041 0.507338 65.834953 18.001995 -0.381165 35.959229 -3.199920 3.038460 -8.534408 -12.637552 -2.476703 9.815815 1.025555 2.195619 18.157698 -5.863873 -3.253329 -22.621609 -14.547729 -9.024702 -32.088768 -6.132516 -0.198371 32.600628 5.159960 5.177002 -14.659388 4.383124 4.206822 
120.423241 49.805393 8.847831 -0.772049 3.579847 -87.710907 34.342281 -0.035863 -1.814361 -24.584599 -0.303352 -0.630350 -6.125050 4.292963 2.124498 -10.224763 -6.018036 5.700092 -4.639579 -2.584670 0.232935 -68.356804 -27.287266 38.994823 -73.409760 8.617720 18.798311 8.524705 12.647240 -45.862682 2.212703 6.201041 0.507338 65.837524 18.285786 -2.057431 35.619892 -3.055969 2.929290 -8.534408 -12.637552 -4.175922 10.825759 0.879101 2.494156 17.021793 -5.878789 -3.094464 -22.516649 -14.388506 -8.927522 -32.632889 -6.249342 0.272564 32.173084 5.179626 5.124833 -14.803184 4.383056 4.225220 
119.733292 49.716457 8.762278 -0.845429 3.814669 -87.848190 34.079517 -0.142695 -1.805832 -24.340895 -0.114304 -0.622742 -6.010487 4.408512 2.338327 -10.446980 -6.194547 6.175671 -4.639579 -2.584670 0.232935 -68.630608 -27.666142 38.318619 -71.938522 8.885866 18.044540 8.524705 12.647240 -47.239635 2.212703 6.201041 0.507338 65.783714 18.859993 -4.234405 35.201694 -2.882951 2.793225 -8.534408 -12.637552 -6.382954 11.795919 0.908285 2.654508 16.117775 -5.918839 -2.968604 -22.131414 -14.171926 -8.748345 -32.912624 -6.209952 0.316655 32.420689 5.175656 5.155169 -14.468902 3.775172 4.047898 
118.969490 49.607819 8.672728 -0.812992 4.016984 -88.151863 34.107422 0.250391 -2.061584 -25.160854 -0.228296 -0.721213 -6.080397 4.180406 2.749429 -9.745497 -5.918639 6.895117 -4.639579 -2.584670 0.232935 -69.069710 -26.970531 36.655052 -70.171097 9.134239 17.162067 8.524705 12.647240 -48.636112 2.212703 6.201041 0.507338 65.766075 18.829699 -5.952878 34.773960 -2.700159 2.653579 -8.534408 -12.637552 -8.863422 12.737695 1.005945 2.631703 15.507243 -5.907320 -2.891977 -21.919765 -13.872247 -8.569319 -32.886604 -5.936962 0.108923 33.307571 5.116784 5.256586 -13.737355 2.593592 3.721364 
118.152740 49.490875 8.589945 -0.699066 4.197515 -88.674248 33.580368 0.475786 -1.868980 -24.633606 -0.200938 -0.705006 -6.150975 4.122867 3.093776 -9.694412 -6.075588 7.571933 -4.639579 -2.584670 0.232935 -69.599518 -27.147537 35.191021 -68.230194 9.319699 16.218065 8.524705 12.647240 -49.554089 2.212703 6.201041 0.507338 65.609695 19.809223 -8.041092 34.307484 -2.508868 2.508943 -8.534408 -12.637552 -11.285297 13.598988 1.133291 2.314099 15.322222 -5.929727 -2.838861 -22.309750 -13.177819 -8.288411 -32.635967 -5.448927 -0.248428 34.639111 5.033258 5.438459 -13.176344 1.171770 3.347529 
